# xmcd
#
# Track frame offsets: 
#        150
#        15598
#        36221
#        51908
#        65094
#        77345
#        89969
#        130067
#        155891
#        169599
#        179090
#        200160
#        217113
#
# Disc length: 3505 seconds
#
# Revision: 3
# Processed by: cddbd v1.5.2PL0 Copyright (c) Steve Scherf et al.
# Submitted via: ExactAudioCopyFreeDBPlugin 1.0
#
DISCID=c40daf0d
DTITLE=HANS THEESSINK and TERRY EVANS - Delta Time
DYEAR=2012
DGENRE=Blues
TTITLE0=Delta Time
TTITLE1=Blues Stay Away From Me
TTITLE2=It Hurts Me Too
TTITLE3=How Come People Act Like That
TTITLE4=The Birds And The Bees
TTITLE5=Build Myself A Home
TTITLE6=Down In Mississippi
TTITLE7=Shelter From The Storm
TTITLE8=I Need Money
TTITLE9=Heaven's Airplane
TTITLE10=Pouring Water On a Drowning Man
TTITLE11=Honest I Do
TTITLE12=Mississippi
EXTD=
EXTT0=
EXTT1=
EXTT2=
EXTT3=
EXTT4=
EXTT5=
EXTT6=
EXTT7=
EXTT8=
EXTT9=
EXTT10=
EXTT11=
EXTT12=
PLAYORDER=
